# xmcd CD database file
#
# Track frame offsets:
#	150
#	12752
#	24247
#	36721
#	49705
#	60312
#	74806
#	87560
#	96882
#	108388
#	119669
#	130420
#	144954
#	155559
#	166578
#
# Disc length: 2398 seconds
#
# Revision: 1
# Processed by: cddbd v1.5.2PL0 Copyright (c) Steve Scherf et al.
# Submitted via: CDex 1.70beta2
#
DISCID=ce095c0f
DTITLE=Sonora Matancera - 30 Pegaditas de la Sonora Matancera CD2
DYEAR=1900
DGENRE=Salsa
TTITLE0=En La Orilla Del Mar
TTITLE1=Mentira Salome
TTITLE2=Mani Tostado
TTITLE3=Oye Guajira
TTITLE4=Fierecilla
TTITLE5=Oyeme Mama
TTITLE6=A Burujon Punao
TTITLE7=Palmeras
TTITLE8=Ay Cosita Linda
TTITLE9=Amar Y Vivir
TTITLE10=El Negrito Del Batey
TTITLE11=Tu Rica Boca
TTITLE12=Besito De Coco
TTITLE13=Dos Gardenias
TTITLE14=Mantecadito
EXTD=
EXTT0=
EXTT1=
EXTT2=
EXTT3=
EXTT4=
EXTT5=
EXTT6=
EXTT7=
EXTT8=
EXTT9=
EXTT10=
EXTT11=
EXTT12=
EXTT13=
EXTT14=
PLAYORDER=
